HIERARCHY
ROOT pelvis
{
  OFFSET 0 100 0
  CHANNELS 6 Xposition Yposition Zposition Zrotation Xrotation Yrotation
  JOINT pelvis_right_femur
  {
    OFFSET -10.78128 -3.44521 -0.5502486
    CHANNELS 3 Zrotation Xrotation Yrotation
    JOINT right_femur_tibia
    {
      OFFSET -0.8047443 -44.0398 -0.1307829
      CHANNELS 3 Zrotation Xrotation Yrotation
      JOINT right_tibia_foot
      {
        OFFSET 3.006224 -47.83518 -5
        CHANNELS 3 Zrotation Xrotation Yrotation
        End Site
        {
          OFFSET 0 -5 15
        }
      }
    }
  }
  JOINT pelvis_left_femur
  {
    OFFSET 10.78128 -3.44521 -0.5502486
    CHANNELS 3 Zrotation Xrotation Yrotation
    JOINT left_femur_tibia
    {
      OFFSET 0.8047443 -44.0398 -0.1307829
      CHANNELS 3 Zrotation Xrotation Yrotation
      JOINT left_tibia_foot
      {
        OFFSET -4.370144 -48.10324 -4.275266
        CHANNELS 3 Zrotation Xrotation Yrotation
        End Site
        {
          OFFSET 0 -5 15
        }
      }
    }
  }
  JOINT pelvis_spine1
  {
    OFFSET 0 6.468898 -3.129235
    CHANNELS 3 Zrotation Xrotation Yrotation
    JOINT spine1
    {
      OFFSET 0 23.15396 4.99043
      CHANNELS 3 Zrotation Xrotation Yrotation
      JOINT spine2
      {
        OFFSET 0 20.79997 -5.064912
        CHANNELS 3 Zrotation Xrotation Yrotation
        JOINT neck
        {
          OFFSET 0 14.38658 9.616178
          CHANNELS 3 Zrotation Xrotation Yrotation
          End Site
          {
            OFFSET 0 20 0
          }
        }
      }
      JOINT right_manubrium
      {
        OFFSET -5.722621 16.35077 3.967754
        CHANNELS 3 Zrotation Xrotation Yrotation
        JOINT right_clavicle
        {
          OFFSET -13.16364 1.694482 -4.693211
          CHANNELS 3 Zrotation Xrotation Yrotation
          JOINT right_humerus
          {
            OFFSET -28.5034 -0.3100689 -2.792744
            CHANNELS 3 Zrotation Xrotation Yrotation
            JOINT right_radius
            {
              OFFSET -25.15693 0.02248979 -1.271978
              CHANNELS 3 Zrotation Xrotation Yrotation
              End Site
              {
                OFFSET -15 0 0
              }
            }
          }
        }
      }
      JOINT left_manubrium
      {
        OFFSET 5.722621 16.35077 3.967754
        CHANNELS 3 Zrotation Xrotation Yrotation
        JOINT left_clavicle
        {
          OFFSET 13.16364 1.694482 -4.693211
          CHANNELS 3 Zrotation Xrotation Yrotation
          JOINT left_humerus
          {
            OFFSET 29.39168 -1.063119 -2.237045
            CHANNELS 3 Zrotation Xrotation Yrotation
            JOINT left_radius
            {
              OFFSET 24.59957 -0.9528479 0.9047498
              CHANNELS 3 Zrotation Xrotation Yrotation
              End Site
              {
                OFFSET 15 -0 -0
              }
            }
          }
        }
      }
    }
  }
}
MOTION
Frames: 19
Frame Time: 0.0416666666667
0 103.5113 0 1.838107 -1.438274 0.1541614 2.178058 -14.93419 8.817809 -0 36.09806 -0 -5.227754 -15.89325 -5.257891 -7.298341 12.09411 -25.71063 -0 3.544485 -0 1.032474 -21.84517 24.68594 -4.44541 -3.380056 4.310199 2.073172 8.086303 -7.668058 0.9871056 23.04008 7.692953 4.125512 -22.63261 8.589068 7.140223 -19.43129 11.30356 86.30362 36.92693 -21.89604 -0 0 16.63671 -7.699735 8.300677 5.093964 4.58904 -18.88545 -3.036008 -101.3903 40.78605 29.77156 0 0 -19.46813 -12.1437 15.69344 28.78905
0.2513958 102.711 1.028338 1.561711 -0.8351392 0.2966553 2.830754 -16.72471 9.255009 -0 36.34871 -0 -5.065226 -15.34359 -5.035849 -7.179755 12.33199 -25.93657 -0 3.234526 -0 1.200032 -22.17275 24.6569 -4.251554 -3.213134 4.367641 2.074787 8.002993 -7.647071 1.102423 22.66907 7.747251 4.220032 -23.07616 8.806828 7.265151 -19.4113 11.26029 86.15467 37.2747 -21.74268 -0 0 17.01697 -6.895285 8.325689 4.717513 4.88853 -18.87491 -2.67768 -101.2308 40.28826 29.69807 0 0 -19.62597 -10.94759 15.88973 27.67744
0.4278479 101.5798 3.085837 0.4884755 -0.08106646 0.5471941 3.748695 -23.8619 6.382811 -0 29.72209 -0 -5.708633 -10.75751 -4.124818 -6.086215 14.31911 -22.44354 -0 4.078887 -0 -1.107095 -24.26532 20.40898 -3.410539 -1.940967 3.451441 2.366569 7.681372 -8.123688 1.082926 22.08178 7.982945 4.37659 -23.93703 8.821045 5.910801 -18.46862 10.99116 87.00952 34.9234 -22.38098 -0 0 15.14667 -8.755469 8.761664 5.021564 5.792605 -20.24924 -2.721546 -96.26063 37.70657 24.06503 0 0 -23.04831 -7.206607 16.18786 23.02246
0.5670289 100.3458 5.620932 -0.07937642 0.6432353 0.8928354 4.393331 -27.32689 5.467891 -0 26.83466 -0 -5.973423 -8.556046 -3.701616 -5.594333 15.1895 -21.2304 -0 4.722103 -0 -2.70738 -25.15755 18.31166 -2.916608 -1.334908 3.081363 2.44473 7.361648 -8.271405 1.095772 21.69294 8.173867 4.594709 -24.41373 8.866117 5.609044 -17.92683 10.84552 87.19701 34.51091 -22.60695 -0 0 14.53151 -9.132352 9.056236 5.032062 6.247968 -20.67792 -2.608505 -94.8975 36.95709 22.40399 0 0 -24.27014 -6.054746 16.13857 21.7593
0.717065 99.18859 8.395631 -0.6299118 1.636872 1.310804 5.421065 -29.78446 5.789438 -0 26.13739 -0 -5.98301 -7.474407 -3.298955 -5.295662 15.5289 -21.08687 -0 5.337273 -0 -3.32641 -25.26594 17.46546 -2.474836 -1.04444 2.975213 2.515851 7.170061 -8.346529 1.089805 21.18404 8.430576 4.847484 -25.0187 9.064678 5.897474 -17.64997 10.83581 87.03431 35.27317 -22.60251 -0 0 14.59038 -8.548454 9.390666 4.811169 6.609598 -20.75654 -2.231998 -94.67888 36.2943 22.18597 0 0 -24.51535 -4.783657 16.11237 20.56157
0.8813016 98.09551 11.42475 -1.173885 2.466703 1.772476 6.370201 -31.77761 6.023337 -0 25.36017 -0 -6.080156 -6.593638 -2.928032 -5.00311 15.77757 -20.76966 -0 6.422935 -0 -3.814717 -25.05951 16.65611 -2.041739 -0.7916366 2.832153 2.624018 7.036262 -8.447439 1.045564 20.76317 8.668085 5.039122 -25.55316 9.234959 6.116006 -17.36091 10.85313 86.93972 35.9132 -22.60413 -0 0 14.44915 -8.179915 9.725206 4.692624 6.8816 -20.85621 -1.922831 -94.28965 35.40998 21.75071 0 0 -24.63589 -3.368089 16.05773 19.0819
1.05735 97.04977 14.73172 -1.666617 3.061316 2.244045 7.114203 -33.27606 6.004203 -0 24.31962 -0 -6.280477 -5.841645 -2.614044 -4.718606 15.96377 -20.22526 -0 7.95168 -0 -4.327971 -24.65942 15.77176 -1.638579 -0.5570618 2.643896 2.746401 6.929646 -8.558507 0.9773171 20.47405 8.859905 5.165908 -25.95716 9.3421 6.206805 -17.03611 10.87251 86.93673 36.29272 -22.63049 -0 0 14.07943 -8.126744 10.0438 4.688639 7.059085 -20.98547 -1.727237 -93.74263 34.44495 21.07943 0 0 -24.69397 -2.033537 15.99311 17.56663
1.245947 96.05861 18.32934 -2.121364 3.511445 2.70548 7.726788 -34.36569 5.847256 -0 23.16796 -0 -6.546182 -5.212279 -2.340643 -4.44523 16.06184 -19.57034 -0 9.872361 -0 -4.877392 -24.07651 14.85212 -1.249483 -0.3428397 2.439741 2.870195 6.835395 -8.664921 0.8938756 20.27197 9.022136 5.254317 -26.27093 9.406265 6.241403 -16.68686 10.89534 86.97892 36.55771 -22.66251 -0 0 13.58426 -8.24802 10.35948 4.757349 7.160725 -21.10749 -1.601498 -93.18251 33.47325 20.35761 0 0 -24.65469 -0.8189558 15.91133 16.12393
1.448879 95.13919 22.22968 -2.549842 3.863443 3.140974 8.255732 -35.0704 5.612111 -0 21.97406 -0 -6.864943 -4.711584 -2.097045 -4.180562 16.03997 -18.84539 -0 12.24314 -0 -5.4565 -23.2743 13.91409 -0.8594927 -0.1484819 2.234331 2.992608 6.750946 -8.760541 0.7976248 20.13361 9.162327 5.31318 -26.51918 9.439012 6.253018 -16.31613 10.9252 87.04688 36.78317 -22.68662 -0 0 13.00172 -8.476748 10.68187 4.883427 7.189988 -21.20324 -1.521849 -92.65858 32.49643 19.65764 0 0 -24.48952 0.2990886 15.80437 14.75706
1.667376 94.31473 26.44721 -2.948792 4.118425 3.532081 8.705122 -35.33127 5.305122 -0 20.75569 -0 -7.239307 -4.360392 -1.884629 -3.922864 15.84983 -18.04815 -0 15.19231 -0 -6.068066 -22.19657 12.95651 -0.4615491 0.0269873 2.037756 3.110767 6.678025 -8.838515 0.6900211 20.05967 9.275449 5.338352 -26.70222 9.438825 6.246818 -15.92323 10.96434 87.1369 36.98363 -22.69058 -0 0 12.33596 -8.802656 11.01416 5.070143 7.134321 -21.25865 -1.485658 -92.18542 31.51065 19.00759 0 0 -24.16868 1.321925 15.66838 13.47589
1.90164 93.61609 30.99593 -3.30043 4.252524 3.854902 9.055416 -35.01737 4.919462 -0 19.53054 -0 -7.672277 -4.20256 -1.712535 -3.674714 15.40908 -17.16814 -0 18.89627 -0 -6.705075 -20.76842 11.98943 -0.05671501 0.1825839 1.867991 3.218608 6.624229 -8.887088 0.5742426 20.06271 9.347434 5.318785 -26.80637 9.39774 6.219058 -15.51282 11.01588 87.24689 37.15326 -22.65563 -0 0 11.58902 -9.232693 11.35464 5.327082 6.971088 -21.25611 -1.498379 -91.77516 30.51583 18.43744 0 0 -23.65319 2.235053 15.49989 12.30546
2.150794 93.0835 35.88263 -3.570623 4.22508 4.078951 9.272443 -33.93148 4.455838 -0 18.33388 -0 -8.157283 -4.304702 -1.594208 -3.445152 14.58461 -16.20065 -0 23.55996 -0 -7.339642 -18.90384 11.04951 0.3431593 0.3158017 1.760072 3.304488 6.606378 -8.887044 0.457023 20.16018 9.356773 5.240004 -26.80866 9.304459 6.164733 -15.1026 11.08528 87.36952 37.28381 -22.55246 -0 0 10.77799 -9.775285 11.69721 5.665612 6.672401 -21.17316 -1.567036 -91.44489 29.51868 17.99646 0 0 -22.90455 3.013531 15.28926 11.28869
2.412766 92.76481 41.09622 -3.704968 3.979283 4.168003 9.308057 -31.82494 3.930591 -0 17.21278 -0 -8.668391 -4.744155 -1.542124 -3.251026 13.17797 -15.15094 -0 29.37284 -0 -7.916933 -16.5322 10.20947 0.7090312 0.4256537 1.773817 3.348014 6.654925 -8.809642 0.3508394 20.36961 9.275757 5.088241 -26.67745 9.145787 6.078273 -14.73129 11.18115 87.48753 37.36894 -22.33884 -0 0 9.947437 -10.4398 12.03252 6.096054 6.214252 -20.98879 -1.696993 -91.21005 28.53209 17.75204 0 0 -21.91198 3.62887 15.01643 10.48171
2.683795 92.70628 46.5931 -3.629078 3.447001 4.086281 9.102387 -28.45238 3.379884 -0 16.20308 -0 -9.149114 -5.576229 -1.556984 -3.115107 10.92696 -14.03632 -0 36.3977 -0 -8.359303 -13.65699 9.580869 0.987083 0.5184483 1.996189 3.316566 6.815615 -8.616473 0.2756354 20.70069 9.075844 4.85898 -26.37426 8.909281 5.953396 -14.46569 11.31487 87.56745 37.40871 -21.95908 -0 0 9.182192 -11.24268 12.353 6.624058 5.594758 -20.69811 -1.888303 -91.07122 27.57631 17.77539 0 0 -20.74003 4.056507 14.65164 9.944528
2.957305 92.93103 52.28244 -3.264079 2.568004 3.813996 8.596861 -23.6954 2.855963 -0 15.28783 -0 -9.507376 -6.778054 -1.611155 -3.055243 7.555113 -12.88391 -0 44.35617 -0 -8.58393 -10.44878 9.305017 1.096942 0.614213 2.524493 3.165364 7.140541 -8.26555 0.257026 21.14342 8.741018 4.569732 -25.86115 8.589254 5.78317 -14.39849 11.49716 87.55182 37.4175 -21.34511 -0 0 8.613265 -12.21873 12.66407 7.246658 4.862104 -20.33446 -2.131093 -90.9973 26.67855 18.10625 0 0 -19.57947 4.289453 14.17042 9.713789
3.222744 93.40426 58.02273 -2.568804 1.33047 3.37012 7.769008 -17.73397 2.407297 -0 14.35835 -0 -9.635375 -8.200025 -1.640559 -3.057751 2.905034 -11.7183 -0 52.34322 -0 -8.527896 -7.326424 9.526997 0.9502591 0.7456899 3.412278 2.848965 7.657626 -7.728447 0.3166986 21.65833 8.286234 4.266445 -25.11765 8.195977 5.557869 -14.62483 11.7291 87.35417 37.42631 -20.41401 -0 0 8.40326 -13.42813 12.99475 7.952943 4.135948 -19.98175 -2.401974 -90.92189 25.86677 18.70437 0 0 -18.73056 4.355007 13.59233 9.753902
3.467724 93.99926 63.64682 -1.601634 -0.1781423 2.823938 6.691062 -11.12685 2.047988 -0 13.2389 -0 -9.468572 -9.605386 -1.573867 -3.039335 -2.873524 -10.53775 -0 58.6871 -0 -8.155937 -4.901486 10.35367 0.5038381 0.938918 4.587373 2.350794 8.323812 -7.01632 0.4552617 22.18015 7.763571 4.001529 -24.1684 7.763279 5.255869 -15.20172 11.98905 86.86904 37.45387 -19.05625 -0 0 8.709479 -14.93093 13.38319 8.737392 3.584434 -19.73941 -2.663162 -90.78317 25.15059 19.44278 0 0 -18.42111 4.319347 13.02012 9.917669
3.688712 94.49579 69.02023 -0.553988 -1.750251 2.269494 5.57028 -4.618896 1.748566 -0 11.81194 -0 -9.044351 -10.84024 -1.395702 -2.829898 -9.248368 -9.294455 -0 61.32128 -0 -7.441843 -3.683262 11.79808 -0.1700925 1.181431 5.820078 1.718396 9.009348 -6.197407 0.6391958 22.63246 7.237196 3.779716 -23.1132 7.34526 4.832474 -16.13219 12.22985 86.01372 37.43707 -17.1382 -0 0 9.652911 -16.71342 13.82148 9.626963 3.335049 -19.63147 -2.864622 -90.60543 24.49304 20.21873 0 0 -18.52946 4.257998 12.60158 9.998559
3.90761 94.63212 74.10411 0.3020845 -3.101365 1.773084 4.69044 1.228988 1.47292 -0 10.12772 -0 -8.467569 -11.9882 -1.163698 -2.219047 -15.50694 -7.904053 -0 58.69852 -0 -6.377866 -3.720254 13.72043 -0.8679983 1.411173 6.826581 1.068679 9.561426 -5.385828 0.80585 22.93139 6.748349 3.52654 -22.13398 6.998074 4.235055 -17.40492 12.40201 84.79396 37.19968 -14.5786 -0 0 11.31259 -18.6346 14.21718 10.70007 3.381186 -19.55211 -2.951516 -90.52937 23.80896 21.11864 0 0 -18.57538 4.195103 12.38401 9.90663
